<svg width="1200" height="1200" viewBox="0 0 1200 1200" fill="none" xmlns="http://www.w3.org/2000/svg">
<g clip-path="url(#clip0_463_1516)">
<rect width="1200" height="1200" fill="#171717"/>
<rect width="1350" height="1350" transform="translate(-75 -75)" fill="url(#paint0_radial_463_1516)" fill-opacity="0.2"/>
<g clip-path="url(#clip1_463_1516)">
<rect x="-75" y="-75" width="90" height="90" stroke="black" stroke-opacity="0.2" stroke-width="2"/>
<rect x="15" y="-75" width="90" height="90" stroke="black" stroke-opacity="0.2" stroke-width="2"/>
<rect x="105" y="-75" width="90" height="90" stroke="black" stroke-opacity="0.2" stroke-width="2"/>
<rect x="195" y="-75" width="90" height="90" stroke="black" stroke-opacity="0.2" stroke-width="2"/>
<rect x="285" y="-75" width="90" height="90" stroke="black" stroke-opacity="0.2" stroke-width="2"/>
<rect x="375" y="-75" width="90" height="90" stroke="black" stroke-opacity="0.2" stroke-width="2"/>
<rect x="465" y="-75" width="90" height="90" stroke="black" stroke-opacity="0.2" stroke-width="2"/>
<rect x="555" y="-75" width="90" height="90" stroke="black" stroke-opacity="0.2" stroke-width="2"/>
<rect x="645" y="-75" width="90" height="90" stroke="black" stroke-opacity="0.2" stroke-width="2"/>
<rect x="735" y="-75" width="90" height="90" stroke="black" stroke-opacity="0.2" stroke-width="2"/>
<rect x="825" y="-75" width="90" height="90" stroke="black" stroke-opacity="0.2" stroke-width="2"/>
<rect x="915" y="-75" width="90" height="90" stroke="black" stroke-opacity="0.2" stroke-width="2"/>
<rect x="1005" y="-75" width="90" height="90" stroke="black" stroke-opacity="0.2" stroke-width="2"/>
<rect x="1095" y="-75" width="90" height="90" stroke="black" stroke-opacity="0.2" stroke-width="2"/>
<rect x="1185" y="-75" width="90" height="90" stroke="black" stroke-opacity="0.2" stroke-width="2"/>
</g>
<rect x="-75" y="-75" width="1350" height="90" stroke="black" stroke-opacity="0.2" stroke-width="2"/>
<g clip-path="url(#clip2_463_1516)">
<rect x="-75" y="15" width="90" height="90" stroke="black" stroke-opacity="0.2" stroke-width="2"/>
<rect x="15" y="15" width="90" height="90" stroke="black" stroke-opacity="0.2" stroke-width="2"/>
<rect x="105" y="15" width="90" height="90" stroke="black" stroke-opacity="0.2" stroke-width="2"/>
<rect x="195" y="15" width="90" height="90" stroke="black" stroke-opacity="0.2" stroke-width="2"/>
<rect x="285" y="15" width="90" height="90" stroke="black" stroke-opacity="0.2" stroke-width="2"/>
<rect x="375" y="15" width="90" height="90" stroke="black" stroke-opacity="0.2" stroke-width="2"/>
<rect x="465" y="15" width="90" height="90" stroke="black" stroke-opacity="0.2" stroke-width="2"/>
<rect x="555" y="15" width="90" height="90" stroke="black" stroke-opacity="0.2" stroke-width="2"/>
<rect x="645" y="15" width="90" height="90" stroke="black" stroke-opacity="0.2" stroke-width="2"/>
<rect x="735" y="15" width="90" height="90" stroke="black" stroke-opacity="0.2" stroke-width="2"/>
<rect x="825" y="15" width="90" height="90" stroke="black" stroke-opacity="0.2" stroke-width="2"/>
<rect x="915" y="15" width="90" height="90" stroke="black" stroke-opacity="0.2" stroke-width="2"/>
<rect x="1005" y="15" width="90" height="90" stroke="black" stroke-opacity="0.2" stroke-width="2"/>
<rect x="1095" y="15" width="90" height="90" stroke="black" stroke-opacity="0.2" stroke-width="2"/>
<rect x="1185" y="15" width="90" height="90" stroke="black" stroke-opacity="0.2" stroke-width="2"/>
</g>
<rect x="-75" y="15" width="1350" height="90" stroke="black" stroke-opacity="0.2" stroke-width="2"/>
<g clip-path="url(#clip3_463_1516)">
<rect x="-75" y="105" width="90" height="90" stroke="black" stroke-opacity="0.2" stroke-width="2"/>
<rect x="15" y="105" width="90" height="90" stroke="black" stroke-opacity="0.2" stroke-width="2"/>
<rect x="105" y="105" width="90" height="90" stroke="black" stroke-opacity="0.2" stroke-width="2"/>
<rect x="195" y="105" width="90" height="90" stroke="black" stroke-opacity="0.2" stroke-width="2"/>
<rect x="285" y="105" width="90" height="90" stroke="black" stroke-opacity="0.2" stroke-width="2"/>
<rect x="375" y="105" width="90" height="90" stroke="black" stroke-opacity="0.2" stroke-width="2"/>
<rect x="465" y="105" width="90" height="90" stroke="black" stroke-opacity="0.2" stroke-width="2"/>
<rect x="555" y="105" width="90" height="90" stroke="black" stroke-opacity="0.2" stroke-width="2"/>
<rect x="645" y="105" width="90" height="90" stroke="black" stroke-opacity="0.2" stroke-width="2"/>
<rect x="735" y="105" width="90" height="90" stroke="black" stroke-opacity="0.2" stroke-width="2"/>
<rect x="825" y="105" width="90" height="90" stroke="black" stroke-opacity="0.2" stroke-width="2"/>
<rect x="915" y="105" width="90" height="90" stroke="black" stroke-opacity="0.2" stroke-width="2"/>
<rect x="1005" y="105" width="90" height="90" stroke="black" stroke-opacity="0.2" stroke-width="2"/>
<rect x="1095" y="105" width="90" height="90" stroke="black" stroke-opacity="0.2" stroke-width="2"/>
<rect x="1185" y="105" width="90" height="90" stroke="black" stroke-opacity="0.2" stroke-width="2"/>
</g>
<rect x="-75" y="105" width="1350" height="90" stroke="black" stroke-opacity="0.2" stroke-width="2"/>
<g clip-path="url(#clip4_463_1516)">
<rect x="-75" y="195" width="90" height="90" stroke="black" stroke-opacity="0.2" stroke-width="2"/>
<rect x="15" y="195" width="90" height="90" stroke="black" stroke-opacity="0.2" stroke-width="2"/>
<rect x="105" y="195" width="90" height="90" stroke="black" stroke-opacity="0.2" stroke-width="2"/>
<rect x="195" y="195" width="90" height="90" stroke="black" stroke-opacity="0.2" stroke-width="2"/>
<rect x="285" y="195" width="90" height="90" stroke="black" stroke-opacity="0.2" stroke-width="2"/>
<rect x="375" y="195" width="90" height="90" stroke="black" stroke-opacity="0.2" stroke-width="2"/>
<rect x="465" y="195" width="90" height="90" stroke="black" stroke-opacity="0.2" stroke-width="2"/>
<rect x="555" y="195" width="90" height="90" stroke="black" stroke-opacity="0.2" stroke-width="2"/>
<rect x="645" y="195" width="90" height="90" stroke="black" stroke-opacity="0.2" stroke-width="2"/>
<rect x="735" y="195" width="90" height="90" stroke="black" stroke-opacity="0.2" stroke-width="2"/>
<rect x="825" y="195" width="90" height="90" stroke="black" stroke-opacity="0.2" stroke-width="2"/>
<rect x="915" y="195" width="90" height="90" stroke="black" stroke-opacity="0.2" stroke-width="2"/>
<rect x="1005" y="195" width="90" height="90" stroke="black" stroke-opacity="0.2" stroke-width="2"/>
<rect x="1095" y="195" width="90" height="90" stroke="black" stroke-opacity="0.2" stroke-width="2"/>
<rect x="1185" y="195" width="90" height="90" stroke="black" stroke-opacity="0.2" stroke-width="2"/>
</g>
<rect x="-75" y="195" width="1350" height="90" stroke="black" stroke-opacity="0.2" stroke-width="2"/>
<g clip-path="url(#clip5_463_1516)">
<rect x="-75" y="285" width="90" height="90" stroke="black" stroke-opacity="0.2" stroke-width="2"/>
<rect x="15" y="285" width="90" height="90" stroke="black" stroke-opacity="0.2" stroke-width="2"/>
<rect x="105" y="285" width="90" height="90" stroke="black" stroke-opacity="0.2" stroke-width="2"/>
<rect x="195" y="285" width="90" height="90" stroke="black" stroke-opacity="0.2" stroke-width="2"/>
<rect x="285" y="285" width="90" height="90" stroke="black" stroke-opacity="0.2" stroke-width="2"/>
<rect x="375" y="285" width="90" height="90" stroke="black" stroke-opacity="0.2" stroke-width="2"/>
<rect x="465" y="285" width="90" height="90" stroke="black" stroke-opacity="0.2" stroke-width="2"/>
<rect x="555" y="285" width="90" height="90" stroke="black" stroke-opacity="0.2" stroke-width="2"/>
<rect x="645" y="285" width="90" height="90" stroke="black" stroke-opacity="0.2" stroke-width="2"/>
<rect x="735" y="285" width="90" height="90" stroke="black" stroke-opacity="0.2" stroke-width="2"/>
<rect x="825" y="285" width="90" height="90" stroke="black" stroke-opacity="0.2" stroke-width="2"/>
<rect x="915" y="285" width="90" height="90" stroke="black" stroke-opacity="0.2" stroke-width="2"/>
<rect x="1005" y="285" width="90" height="90" stroke="black" stroke-opacity="0.2" stroke-width="2"/>
<rect x="1095" y="285" width="90" height="90" stroke="black" stroke-opacity="0.2" stroke-width="2"/>
<rect x="1185" y="285" width="90" height="90" stroke="black" stroke-opacity="0.2" stroke-width="2"/>
</g>
<rect x="-75" y="285" width="1350" height="90" stroke="black" stroke-opacity="0.2" stroke-width="2"/>
<g clip-path="url(#clip6_463_1516)">
<rect x="-75" y="375" width="90" height="90" stroke="black" stroke-opacity="0.2" stroke-width="2"/>
<rect x="15" y="375" width="90" height="90" stroke="black" stroke-opacity="0.2" stroke-width="2"/>
<rect x="105" y="375" width="90" height="90" stroke="black" stroke-opacity="0.2" stroke-width="2"/>
<rect x="195" y="375" width="90" height="90" stroke="black" stroke-opacity="0.2" stroke-width="2"/>
<rect x="285" y="375" width="90" height="90" stroke="black" stroke-opacity="0.2" stroke-width="2"/>
<rect x="375" y="375" width="90" height="90" stroke="black" stroke-opacity="0.2" stroke-width="2"/>
<rect x="465" y="375" width="90" height="90" stroke="black" stroke-opacity="0.2" stroke-width="2"/>
<rect x="555" y="375" width="90" height="90" stroke="black" stroke-opacity="0.2" stroke-width="2"/>
<rect x="645" y="375" width="90" height="90" stroke="black" stroke-opacity="0.2" stroke-width="2"/>
<rect x="735" y="375" width="90" height="90" stroke="black" stroke-opacity="0.2" stroke-width="2"/>
<rect x="825" y="375" width="90" height="90" stroke="black" stroke-opacity="0.2" stroke-width="2"/>
<rect x="915" y="375" width="90" height="90" stroke="black" stroke-opacity="0.2" stroke-width="2"/>
<rect x="1005" y="375" width="90" height="90" stroke="black" stroke-opacity="0.2" stroke-width="2"/>
<rect x="1095" y="375" width="90" height="90" stroke="black" stroke-opacity="0.2" stroke-width="2"/>
<rect x="1185" y="375" width="90" height="90" stroke="black" stroke-opacity="0.2" stroke-width="2"/>
</g>
<rect x="-75" y="375" width="1350" height="90" stroke="black" stroke-opacity="0.2" stroke-width="2"/>
<g clip-path="url(#clip7_463_1516)">
<rect x="-75" y="465" width="90" height="90" stroke="black" stroke-opacity="0.2" stroke-width="2"/>
<rect x="15" y="465" width="90" height="90" stroke="black" stroke-opacity="0.2" stroke-width="2"/>
<rect x="105" y="465" width="90" height="90" stroke="black" stroke-opacity="0.2" stroke-width="2"/>
<rect x="195" y="465" width="90" height="90" stroke="black" stroke-opacity="0.2" stroke-width="2"/>
<rect x="285" y="465" width="90" height="90" stroke="black" stroke-opacity="0.2" stroke-width="2"/>
<rect x="375" y="465" width="90" height="90" stroke="black" stroke-opacity="0.2" stroke-width="2"/>
<rect x="465" y="465" width="90" height="90" stroke="black" stroke-opacity="0.2" stroke-width="2"/>
<rect x="555" y="465" width="90" height="90" stroke="black" stroke-opacity="0.2" stroke-width="2"/>
<rect x="645" y="465" width="90" height="90" stroke="black" stroke-opacity="0.2" stroke-width="2"/>
<rect x="735" y="465" width="90" height="90" stroke="black" stroke-opacity="0.2" stroke-width="2"/>
<rect x="825" y="465" width="90" height="90" stroke="black" stroke-opacity="0.2" stroke-width="2"/>
<rect x="915" y="465" width="90" height="90" stroke="black" stroke-opacity="0.2" stroke-width="2"/>
<rect x="1005" y="465" width="90" height="90" stroke="black" stroke-opacity="0.2" stroke-width="2"/>
<rect x="1095" y="465" width="90" height="90" stroke="black" stroke-opacity="0.2" stroke-width="2"/>
<rect x="1185" y="465" width="90" height="90" stroke="black" stroke-opacity="0.2" stroke-width="2"/>
</g>
<rect x="-75" y="465" width="1350" height="90" stroke="black" stroke-opacity="0.2" stroke-width="2"/>
<g clip-path="url(#clip8_463_1516)">
<rect x="-75" y="555" width="90" height="90" stroke="black" stroke-opacity="0.2" stroke-width="2"/>
<rect x="15" y="555" width="90" height="90" stroke="black" stroke-opacity="0.2" stroke-width="2"/>
<rect x="105" y="555" width="90" height="90" stroke="black" stroke-opacity="0.2" stroke-width="2"/>
<rect x="195" y="555" width="90" height="90" stroke="black" stroke-opacity="0.2" stroke-width="2"/>
<rect x="285" y="555" width="90" height="90" stroke="black" stroke-opacity="0.2" stroke-width="2"/>
<rect x="375" y="555" width="90" height="90" stroke="black" stroke-opacity="0.2" stroke-width="2"/>
<rect x="465" y="555" width="90" height="90" stroke="black" stroke-opacity="0.2" stroke-width="2"/>
<rect x="555" y="555" width="90" height="90" stroke="black" stroke-opacity="0.2" stroke-width="2"/>
<rect x="645" y="555" width="90" height="90" stroke="black" stroke-opacity="0.2" stroke-width="2"/>
<rect x="735" y="555" width="90" height="90" stroke="black" stroke-opacity="0.2" stroke-width="2"/>
<rect x="825" y="555" width="90" height="90" stroke="black" stroke-opacity="0.2" stroke-width="2"/>
<rect x="915" y="555" width="90" height="90" stroke="black" stroke-opacity="0.2" stroke-width="2"/>
<rect x="1005" y="555" width="90" height="90" stroke="black" stroke-opacity="0.2" stroke-width="2"/>
<rect x="1095" y="555" width="90" height="90" stroke="black" stroke-opacity="0.2" stroke-width="2"/>
<rect x="1185" y="555" width="90" height="90" stroke="black" stroke-opacity="0.2" stroke-width="2"/>
</g>
<rect x="-75" y="555" width="1350" height="90" stroke="black" stroke-opacity="0.2" stroke-width="2"/>
<g clip-path="url(#clip9_463_1516)">
<rect x="-75" y="645" width="90" height="90" stroke="black" stroke-opacity="0.2" stroke-width="2"/>
<rect x="15" y="645" width="90" height="90" stroke="black" stroke-opacity="0.2" stroke-width="2"/>
<rect x="105" y="645" width="90" height="90" stroke="black" stroke-opacity="0.2" stroke-width="2"/>
<rect x="195" y="645" width="90" height="90" stroke="black" stroke-opacity="0.2" stroke-width="2"/>
<rect x="285" y="645" width="90" height="90" stroke="black" stroke-opacity="0.2" stroke-width="2"/>
<rect x="375" y="645" width="90" height="90" stroke="black" stroke-opacity="0.2" stroke-width="2"/>
<rect x="465" y="645" width="90" height="90" stroke="black" stroke-opacity="0.2" stroke-width="2"/>
<rect x="555" y="645" width="90" height="90" stroke="black" stroke-opacity="0.2" stroke-width="2"/>
<rect x="645" y="645" width="90" height="90" stroke="black" stroke-opacity="0.2" stroke-width="2"/>
<rect x="735" y="645" width="90" height="90" stroke="black" stroke-opacity="0.2" stroke-width="2"/>
<rect x="825" y="645" width="90" height="90" stroke="black" stroke-opacity="0.2" stroke-width="2"/>
<rect x="915" y="645" width="90" height="90" stroke="black" stroke-opacity="0.2" stroke-width="2"/>
<rect x="1005" y="645" width="90" height="90" stroke="black" stroke-opacity="0.2" stroke-width="2"/>
<rect x="1095" y="645" width="90" height="90" stroke="black" stroke-opacity="0.2" stroke-width="2"/>
<rect x="1185" y="645" width="90" height="90" stroke="black" stroke-opacity="0.2" stroke-width="2"/>
</g>
<rect x="-75" y="645" width="1350" height="90" stroke="black" stroke-opacity="0.2" stroke-width="2"/>
<g clip-path="url(#clip10_463_1516)">
<rect x="-75" y="735" width="90" height="90" stroke="black" stroke-opacity="0.2" stroke-width="2"/>
<rect x="15" y="735" width="90" height="90" stroke="black" stroke-opacity="0.2" stroke-width="2"/>
<rect x="105" y="735" width="90" height="90" stroke="black" stroke-opacity="0.2" stroke-width="2"/>
<rect x="195" y="735" width="90" height="90" stroke="black" stroke-opacity="0.2" stroke-width="2"/>
<rect x="285" y="735" width="90" height="90" stroke="black" stroke-opacity="0.2" stroke-width="2"/>
<rect x="375" y="735" width="90" height="90" stroke="black" stroke-opacity="0.2" stroke-width="2"/>
<rect x="465" y="735" width="90" height="90" stroke="black" stroke-opacity="0.2" stroke-width="2"/>
<rect x="555" y="735" width="90" height="90" stroke="black" stroke-opacity="0.2" stroke-width="2"/>
<rect x="645" y="735" width="90" height="90" stroke="black" stroke-opacity="0.2" stroke-width="2"/>
<rect x="735" y="735" width="90" height="90" stroke="black" stroke-opacity="0.2" stroke-width="2"/>
<rect x="825" y="735" width="90" height="90" stroke="black" stroke-opacity="0.2" stroke-width="2"/>
<rect x="915" y="735" width="90" height="90" stroke="black" stroke-opacity="0.2" stroke-width="2"/>
<rect x="1005" y="735" width="90" height="90" stroke="black" stroke-opacity="0.2" stroke-width="2"/>
<rect x="1095" y="735" width="90" height="90" stroke="black" stroke-opacity="0.2" stroke-width="2"/>
<rect x="1185" y="735" width="90" height="90" stroke="black" stroke-opacity="0.2" stroke-width="2"/>
</g>
<rect x="-75" y="735" width="1350" height="90" stroke="black" stroke-opacity="0.2" stroke-width="2"/>
<g clip-path="url(#clip11_463_1516)">
<rect x="-75" y="825" width="90" height="90" stroke="black" stroke-opacity="0.2" stroke-width="2"/>
<rect x="15" y="825" width="90" height="90" stroke="black" stroke-opacity="0.2" stroke-width="2"/>
<rect x="105" y="825" width="90" height="90" stroke="black" stroke-opacity="0.2" stroke-width="2"/>
<rect x="195" y="825" width="90" height="90" stroke="black" stroke-opacity="0.2" stroke-width="2"/>
<rect x="285" y="825" width="90" height="90" stroke="black" stroke-opacity="0.2" stroke-width="2"/>
<rect x="375" y="825" width="90" height="90" stroke="black" stroke-opacity="0.2" stroke-width="2"/>
<rect x="465" y="825" width="90" height="90" stroke="black" stroke-opacity="0.2" stroke-width="2"/>
<rect x="555" y="825" width="90" height="90" stroke="black" stroke-opacity="0.2" stroke-width="2"/>
<rect x="645" y="825" width="90" height="90" stroke="black" stroke-opacity="0.2" stroke-width="2"/>
<rect x="735" y="825" width="90" height="90" stroke="black" stroke-opacity="0.2" stroke-width="2"/>
<rect x="825" y="825" width="90" height="90" stroke="black" stroke-opacity="0.2" stroke-width="2"/>
<rect x="915" y="825" width="90" height="90" stroke="black" stroke-opacity="0.2" stroke-width="2"/>
<rect x="1005" y="825" width="90" height="90" stroke="black" stroke-opacity="0.2" stroke-width="2"/>
<rect x="1095" y="825" width="90" height="90" stroke="black" stroke-opacity="0.2" stroke-width="2"/>
<rect x="1185" y="825" width="90" height="90" stroke="black" stroke-opacity="0.2" stroke-width="2"/>
</g>
<rect x="-75" y="825" width="1350" height="90" stroke="black" stroke-opacity="0.2" stroke-width="2"/>
<g clip-path="url(#clip12_463_1516)">
<rect x="-75" y="915" width="90" height="90" stroke="black" stroke-opacity="0.2" stroke-width="2"/>
<rect x="15" y="915" width="90" height="90" stroke="black" stroke-opacity="0.2" stroke-width="2"/>
<rect x="105" y="915" width="90" height="90" stroke="black" stroke-opacity="0.2" stroke-width="2"/>
<rect x="195" y="915" width="90" height="90" stroke="black" stroke-opacity="0.2" stroke-width="2"/>
<rect x="285" y="915" width="90" height="90" stroke="black" stroke-opacity="0.2" stroke-width="2"/>
<rect x="375" y="915" width="90" height="90" stroke="black" stroke-opacity="0.2" stroke-width="2"/>
<rect x="465" y="915" width="90" height="90" stroke="black" stroke-opacity="0.2" stroke-width="2"/>
<rect x="555" y="915" width="90" height="90" stroke="black" stroke-opacity="0.2" stroke-width="2"/>
<rect x="645" y="915" width="90" height="90" stroke="black" stroke-opacity="0.2" stroke-width="2"/>
<rect x="735" y="915" width="90" height="90" stroke="black" stroke-opacity="0.2" stroke-width="2"/>
<rect x="825" y="915" width="90" height="90" stroke="black" stroke-opacity="0.2" stroke-width="2"/>
<rect x="915" y="915" width="90" height="90" stroke="black" stroke-opacity="0.2" stroke-width="2"/>
<rect x="1005" y="915" width="90" height="90" stroke="black" stroke-opacity="0.2" stroke-width="2"/>
<rect x="1095" y="915" width="90" height="90" stroke="black" stroke-opacity="0.2" stroke-width="2"/>
<rect x="1185" y="915" width="90" height="90" stroke="black" stroke-opacity="0.2" stroke-width="2"/>
</g>
<rect x="-75" y="915" width="1350" height="90" stroke="black" stroke-opacity="0.2" stroke-width="2"/>
<g clip-path="url(#clip13_463_1516)">
<rect x="-75" y="1005" width="90" height="90" stroke="black" stroke-opacity="0.2" stroke-width="2"/>
<rect x="15" y="1005" width="90" height="90" stroke="black" stroke-opacity="0.2" stroke-width="2"/>
<rect x="105" y="1005" width="90" height="90" stroke="black" stroke-opacity="0.2" stroke-width="2"/>
<rect x="195" y="1005" width="90" height="90" stroke="black" stroke-opacity="0.2" stroke-width="2"/>
<rect x="285" y="1005" width="90" height="90" stroke="black" stroke-opacity="0.2" stroke-width="2"/>
<rect x="375" y="1005" width="90" height="90" stroke="black" stroke-opacity="0.2" stroke-width="2"/>
<rect x="465" y="1005" width="90" height="90" stroke="black" stroke-opacity="0.2" stroke-width="2"/>
<rect x="555" y="1005" width="90" height="90" stroke="black" stroke-opacity="0.2" stroke-width="2"/>
<rect x="645" y="1005" width="90" height="90" stroke="black" stroke-opacity="0.2" stroke-width="2"/>
<rect x="735" y="1005" width="90" height="90" stroke="black" stroke-opacity="0.2" stroke-width="2"/>
<rect x="825" y="1005" width="90" height="90" stroke="black" stroke-opacity="0.2" stroke-width="2"/>
<rect x="915" y="1005" width="90" height="90" stroke="black" stroke-opacity="0.2" stroke-width="2"/>
<rect x="1005" y="1005" width="90" height="90" stroke="black" stroke-opacity="0.2" stroke-width="2"/>
<rect x="1095" y="1005" width="90" height="90" stroke="black" stroke-opacity="0.2" stroke-width="2"/>
<rect x="1185" y="1005" width="90" height="90" stroke="black" stroke-opacity="0.2" stroke-width="2"/>
</g>
<rect x="-75" y="1005" width="1350" height="90" stroke="black" stroke-opacity="0.2" stroke-width="2"/>
<g clip-path="url(#clip14_463_1516)">
<rect x="-75" y="1095" width="90" height="90" stroke="black" stroke-opacity="0.2" stroke-width="2"/>
<rect x="15" y="1095" width="90" height="90" stroke="black" stroke-opacity="0.2" stroke-width="2"/>
<rect x="105" y="1095" width="90" height="90" stroke="black" stroke-opacity="0.2" stroke-width="2"/>
<rect x="195" y="1095" width="90" height="90" stroke="black" stroke-opacity="0.2" stroke-width="2"/>
<rect x="285" y="1095" width="90" height="90" stroke="black" stroke-opacity="0.2" stroke-width="2"/>
<rect x="375" y="1095" width="90" height="90" stroke="black" stroke-opacity="0.2" stroke-width="2"/>
<rect x="465" y="1095" width="90" height="90" stroke="black" stroke-opacity="0.2" stroke-width="2"/>
<rect x="555" y="1095" width="90" height="90" stroke="black" stroke-opacity="0.2" stroke-width="2"/>
<rect x="645" y="1095" width="90" height="90" stroke="black" stroke-opacity="0.2" stroke-width="2"/>
<rect x="735" y="1095" width="90" height="90" stroke="black" stroke-opacity="0.2" stroke-width="2"/>
<rect x="825" y="1095" width="90" height="90" stroke="black" stroke-opacity="0.2" stroke-width="2"/>
<rect x="915" y="1095" width="90" height="90" stroke="black" stroke-opacity="0.2" stroke-width="2"/>
<rect x="1005" y="1095" width="90" height="90" stroke="black" stroke-opacity="0.2" stroke-width="2"/>
<rect x="1095" y="1095" width="90" height="90" stroke="black" stroke-opacity="0.2" stroke-width="2"/>
<rect x="1185" y="1095" width="90" height="90" stroke="black" stroke-opacity="0.2" stroke-width="2"/>
</g>
<rect x="-75" y="1095" width="1350" height="90" stroke="black" stroke-opacity="0.2" stroke-width="2"/>
<g clip-path="url(#clip15_463_1516)">
<rect x="-75" y="1185" width="90" height="90" stroke="black" stroke-opacity="0.2" stroke-width="2"/>
<rect x="15" y="1185" width="90" height="90" stroke="black" stroke-opacity="0.2" stroke-width="2"/>
<rect x="105" y="1185" width="90" height="90" stroke="black" stroke-opacity="0.2" stroke-width="2"/>
<rect x="195" y="1185" width="90" height="90" stroke="black" stroke-opacity="0.2" stroke-width="2"/>
<rect x="285" y="1185" width="90" height="90" stroke="black" stroke-opacity="0.2" stroke-width="2"/>
<rect x="375" y="1185" width="90" height="90" stroke="black" stroke-opacity="0.2" stroke-width="2"/>
<rect x="465" y="1185" width="90" height="90" stroke="black" stroke-opacity="0.2" stroke-width="2"/>
<rect x="555" y="1185" width="90" height="90" stroke="black" stroke-opacity="0.2" stroke-width="2"/>
<rect x="645" y="1185" width="90" height="90" stroke="black" stroke-opacity="0.2" stroke-width="2"/>
<rect x="735" y="1185" width="90" height="90" stroke="black" stroke-opacity="0.2" stroke-width="2"/>
<rect x="825" y="1185" width="90" height="90" stroke="black" stroke-opacity="0.2" stroke-width="2"/>
<rect x="915" y="1185" width="90" height="90" stroke="black" stroke-opacity="0.2" stroke-width="2"/>
<rect x="1005" y="1185" width="90" height="90" stroke="black" stroke-opacity="0.2" stroke-width="2"/>
<rect x="1095" y="1185" width="90" height="90" stroke="black" stroke-opacity="0.2" stroke-width="2"/>
<rect x="1185" y="1185" width="90" height="90" stroke="black" stroke-opacity="0.2" stroke-width="2"/>
</g>
<rect x="-75" y="1185" width="1350" height="90" stroke="black" stroke-opacity="0.2" stroke-width="2"/>
<rect width="1200" height="1200" fill="#6F57FF" fill-opacity="0.15"/>
<rect width="1200" height="1200" fill="url(#paint1_radial_463_1516)"/>
<rect width="1200" height="1200" fill="url(#paint2_radial_463_1516)"/>
</g>
<defs>
<radialGradient id="paint0_radial_463_1516" cx="0" cy="0" r="1" gradientUnits="userSpaceOnUse" gradientTransform="translate(675 675) rotate(90) scale(675)">
<stop stop-color="white"/>
<stop offset="1" stop-color="#F9F9F9"/>
</radialGradient>
<radialGradient id="paint1_radial_463_1516" cx="0" cy="0" r="1" gradientUnits="userSpaceOnUse" gradientTransform="translate(600 600) rotate(90) scale(600)">
<stop stop-color="#171717" stop-opacity="0"/>
<stop offset="1" stop-color="#171717"/>
</radialGradient>
<radialGradient id="paint2_radial_463_1516" cx="0" cy="0" r="1" gradientUnits="userSpaceOnUse" gradientTransform="translate(616.928 575.281) rotate(90) scale(624.719)">
<stop stop-color="#171717" stop-opacity="0"/>
<stop offset="1" stop-color="#171717"/>
</radialGradient>
<clipPath id="clip0_463_1516">
<rect width="1200" height="1200" fill="white"/>
</clipPath>
<clipPath id="clip1_463_1516">
<rect x="-75" y="-75" width="1350" height="90" fill="white"/>
</clipPath>
<clipPath id="clip2_463_1516">
<rect x="-75" y="15" width="1350" height="90" fill="white"/>
</clipPath>
<clipPath id="clip3_463_1516">
<rect x="-75" y="105" width="1350" height="90" fill="white"/>
</clipPath>
<clipPath id="clip4_463_1516">
<rect x="-75" y="195" width="1350" height="90" fill="white"/>
</clipPath>
<clipPath id="clip5_463_1516">
<rect x="-75" y="285" width="1350" height="90" fill="white"/>
</clipPath>
<clipPath id="clip6_463_1516">
<rect x="-75" y="375" width="1350" height="90" fill="white"/>
</clipPath>
<clipPath id="clip7_463_1516">
<rect x="-75" y="465" width="1350" height="90" fill="white"/>
</clipPath>
<clipPath id="clip8_463_1516">
<rect x="-75" y="555" width="1350" height="90" fill="white"/>
</clipPath>
<clipPath id="clip9_463_1516">
<rect x="-75" y="645" width="1350" height="90" fill="white"/>
</clipPath>
<clipPath id="clip10_463_1516">
<rect x="-75" y="735" width="1350" height="90" fill="white"/>
</clipPath>
<clipPath id="clip11_463_1516">
<rect x="-75" y="825" width="1350" height="90" fill="white"/>
</clipPath>
<clipPath id="clip12_463_1516">
<rect x="-75" y="915" width="1350" height="90" fill="white"/>
</clipPath>
<clipPath id="clip13_463_1516">
<rect x="-75" y="1005" width="1350" height="90" fill="white"/>
</clipPath>
<clipPath id="clip14_463_1516">
<rect x="-75" y="1095" width="1350" height="90" fill="white"/>
</clipPath>
<clipPath id="clip15_463_1516">
<rect x="-75" y="1185" width="1350" height="90" fill="white"/>
</clipPath>
</defs>
</svg>
